<?xml version="1.0" encoding="UTF-8" standalone="no"?> <svg id="Layer_1" data-name="Layer 1" xmlns="http://www.w3.org/2000/svg" viewBox="0 0 128 128"><defs><style>.cls-1{fill:#2d3e50;}</style></defs><title>n</title><path class="cls-1" d="M64.0022,1.99423c-23.55631,0-42.719,12.22975-42.719,35.78169,0,29.22833,38.22938,85.14132,39.85683,86.952a3.8395,3.8395,0,0,0,5.72,0c1.62742-1.81069,39.8568-57.72368,39.8568-86.952C106.71682,14.224,87.55414,1.99423,64.0022,1.99423Zm23.00211,58.2934a1.4742,1.4742,0,0,1-1.13259.53982H42.12841a1.48259,1.48259,0,0,1-1.13262-.53982,1.38009,1.38009,0,0,1-.32814-1.22259A190.376,190.376,0,0,0,46.63242,26.161a1.47278,1.47278,0,0,1,1.46076-1.22259H79.907A1.47692,1.47692,0,0,1,81.36771,26.161,190.376,190.376,0,0,0,87.33248,59.065,1.39551,1.39551,0,0,1,87.00431,60.28763Z"/><path class="cls-1" d="M70.02569,31.66528a2.08463,2.08463,0,0,0-1.14852,3.82127v2.69921a4.87712,4.87712,0,0,1-9.75425,0V35.48655a2.08264,2.08264,0,1,0-2.30227,0v2.69921a7.17941,7.17941,0,1,0,14.35881,0V35.48655a2.08462,2.08462,0,0,0-1.15378-3.82127Z"/></svg>